<svg width="965" height="397" viewBox="0 0 965 397" fill="none" xmlns="http://www.w3.org/2000/svg">
<rect width="965" height="397" fill="#65FFF6" fill-opacity="0.31"/>
<path d="M264.856 223.84C264.6 223.84 264.344 223.755 264.088 223.584C263.917 223.413 263.875 223.285 263.96 223.2C264.557 222.432 265.027 221.579 265.368 220.64C265.795 219.787 266.179 218.891 266.52 217.952C265.411 211.979 263.917 205.749 262.04 199.264C260.248 192.779 258.285 186.293 256.152 179.808C254.104 173.237 252.141 167.008 250.264 161.12C249.667 161.547 249.027 162.571 248.344 164.192C247.747 165.813 247.32 167.008 247.064 167.776C245.955 170.677 244.632 174.091 243.096 178.016C241.645 181.856 239.981 185.867 238.104 190.048C236.312 194.144 234.264 198.197 231.96 202.208C229.741 206.133 227.267 209.717 224.536 212.96C223.256 214.581 221.507 216.032 219.288 217.312C217.069 218.507 214.765 219.445 212.376 220.128C209.987 220.896 207.811 221.28 205.848 221.28C203.203 221.28 200.643 220.555 198.168 219.104C195.779 217.568 193.987 215.264 192.792 212.192C192.451 211.083 192.195 209.931 192.024 208.736C191.853 207.456 191.768 206.219 191.768 205.024C191.768 203.829 191.981 203.232 192.408 203.232C192.835 203.232 193.048 203.573 193.048 204.256C193.048 208.267 194.157 211.595 196.376 214.24C198.595 216.885 201.24 218.208 204.312 218.208C207.299 218.208 210.285 217.483 213.272 216.032C216.259 214.581 218.947 212.576 221.336 210.016C225.176 205.749 228.419 201.227 231.064 196.448C233.709 191.669 236.056 186.72 238.104 181.6C240.152 176.48 242.243 171.36 244.376 166.24C245.656 162.997 247.448 160.181 249.752 157.792C252.056 155.403 254.744 153.909 257.816 153.312H250.776C247.789 153.312 244.632 153.44 241.304 153.696C237.976 153.952 234.947 154.507 232.216 155.36C229.485 156.213 227.523 157.493 226.328 159.2C225.645 160.224 225.304 161.461 225.304 162.912C225.304 164.448 225.688 165.899 226.456 167.264C227.224 168.629 228.205 169.611 229.4 170.208C229.571 170.379 229.656 170.464 229.656 170.464C229.656 170.72 229.443 170.976 229.016 171.232C228.675 171.403 228.291 171.445 227.864 171.36C227.181 170.933 226.328 170.251 225.304 169.312C224.28 168.288 223.341 167.221 222.488 166.112C221.72 165.003 221.208 164.064 220.952 163.296C220.611 162.272 220.44 161.248 220.44 160.224C220.44 158.176 221.165 156.512 222.616 155.232C224.152 153.952 226.115 152.971 228.504 152.288C230.893 151.605 233.453 151.136 236.184 150.88C239 150.539 241.688 150.368 244.248 150.368C246.808 150.283 249.027 150.24 250.904 150.24H266.392C266.819 150.155 266.819 150.453 266.392 151.136C266.051 151.819 265.581 152.501 264.984 153.184C264.472 153.781 264.045 154.08 263.704 154.08C262.851 153.995 261.528 154.165 259.736 154.592C258.029 154.933 256.835 155.36 256.152 155.872C256.408 159.115 257.005 162.912 257.944 167.264C258.968 171.616 260.163 176.224 261.528 181.088C262.893 185.867 264.387 190.688 266.008 195.552C267.715 200.331 269.379 204.811 271 208.992C272.365 205.749 273.901 201.781 275.608 197.088C277.315 192.395 279.107 187.403 280.984 182.112C282.947 176.821 284.952 171.701 287 166.752C289.133 161.717 291.224 157.237 293.272 153.312C295.405 149.387 297.496 146.485 299.544 144.608C300.568 143.669 301.805 142.944 303.256 142.432C304.707 141.835 306.072 141.536 307.352 141.536C308.547 141.536 309.571 141.835 310.424 142.432C311.277 142.944 311.661 143.797 311.576 144.992L311.448 149.6C311.448 149.685 311.235 149.771 310.808 149.856C310.381 149.941 310.211 149.941 310.296 149.856C310.381 148.747 309.955 147.979 309.016 147.552C308.077 147.04 307.309 146.784 306.712 146.784C304.92 146.699 303 147.808 300.952 150.112C298.989 152.416 296.941 155.445 294.808 159.2C292.675 162.955 290.584 167.093 288.536 171.616C286.488 176.053 284.525 180.533 282.648 185.056C280.856 189.493 279.235 193.589 277.784 197.344C276.333 201.099 275.139 204.043 274.2 206.176C273.347 207.968 272.92 209.717 272.92 211.424C272.92 211.68 272.92 211.936 272.92 212.192C272.92 212.448 272.963 212.704 273.048 212.96C273.048 213.301 273.091 213.685 273.176 214.112C273.347 214.539 273.475 214.965 273.56 215.392C273.56 215.477 273.56 215.563 273.56 215.648C273.645 215.733 273.688 215.861 273.688 216.032C273.688 216.715 273.347 217.312 272.664 217.824C271.811 218.421 270.872 218.933 269.848 219.36C269.251 219.616 268.397 220.256 267.288 221.28C266.264 222.389 265.624 223.157 265.368 223.584C265.197 223.755 265.027 223.84 264.856 223.84ZM289.65 220.256C288.285 220.256 287.047 220 285.938 219.488C284.914 218.891 284.402 217.653 284.402 215.776C284.402 212.789 285.17 209.803 286.706 206.816C288.242 203.744 289.821 201.056 291.442 198.752C292.893 196.789 294.514 194.955 296.306 193.248C298.183 191.456 300.189 189.92 302.322 188.64C303.687 187.787 305.522 186.891 307.826 185.952C310.215 184.928 312.221 184.416 313.842 184.416C315.207 184.416 316.402 184.8 317.426 185.568C318.45 186.251 318.962 187.531 318.962 189.408C318.962 192.309 318.194 195.296 316.658 198.368C315.207 201.355 313.671 204 312.05 206.304C311.282 207.328 310.514 208.309 309.746 209.248C308.978 210.101 308.125 210.997 307.186 211.936C310.343 211.936 313.245 211.04 315.89 209.248C318.535 207.371 320.839 205.109 322.802 202.464L323.058 202.208C323.314 202.208 323.442 202.464 323.442 202.976C323.442 203.573 323.271 204.128 322.93 204.64C321.223 207.029 319.09 209.163 316.53 211.04C313.97 212.832 311.069 213.728 307.826 213.728C307.485 213.728 307.143 213.728 306.802 213.728C306.461 213.728 306.119 213.685 305.778 213.6C300.999 218.037 295.623 220.256 289.65 220.256ZM292.978 218.08C294.173 218.08 295.453 217.653 296.818 216.8C298.269 215.947 299.378 215.136 300.146 214.368C301.597 212.917 302.919 211.381 304.114 209.76C305.309 208.053 306.418 206.347 307.442 204.64C308.637 202.592 309.831 200.16 311.026 197.344C312.221 194.528 312.818 191.883 312.818 189.408C312.818 187.445 312.135 186.464 310.77 186.464C309.661 186.464 308.295 186.933 306.674 187.872C305.138 188.811 303.986 189.664 303.218 190.432C300.317 193.419 297.885 196.661 295.922 200.16C294.813 202.123 293.618 204.427 292.338 207.072C291.058 209.717 290.418 212.149 290.418 214.368C290.418 214.709 290.418 215.051 290.418 215.392C290.503 215.648 290.589 215.947 290.674 216.288C291.015 217.483 291.783 218.08 292.978 218.08ZM331.973 220.768C330.778 220.768 329.754 220.341 328.901 219.488C328.048 218.635 327.621 217.141 327.621 215.008C327.621 213.131 327.749 210.912 328.005 208.352C328.346 205.792 328.816 203.189 329.413 200.544C330.01 197.813 330.693 195.424 331.461 193.376C330.01 195.509 328.389 197.728 326.597 200.032C324.805 202.251 323.312 204.128 322.117 205.664C321.861 206.005 321.648 206.176 321.477 206.176C321.306 206.176 321.221 205.963 321.221 205.536C321.221 204.853 321.434 204.213 321.861 203.616C323.653 201.141 325.658 198.325 327.877 195.168C330.181 192.011 332.144 189.152 333.765 186.592C334.704 186.421 335.813 186.165 337.093 185.824C338.458 185.483 339.44 185.013 340.037 184.416C340.464 184.16 340.72 184.032 340.805 184.032C341.061 184.032 341.189 184.203 341.189 184.544C341.189 184.8 341.061 185.099 340.805 185.44C340.037 186.549 339.184 188.299 338.245 190.688C337.306 192.992 336.41 195.595 335.557 198.496C334.704 201.312 333.978 204.085 333.381 206.816C332.869 209.547 332.613 211.808 332.613 213.6C332.613 214.965 332.826 215.904 333.253 216.416C333.765 216.928 334.32 217.184 334.917 217.184C336.112 217.184 337.349 216.629 338.629 215.52C339.994 214.411 341.317 213.045 342.597 211.424C343.962 209.803 345.157 208.224 346.181 206.688C347.205 205.152 347.973 203.957 348.485 203.104C350.192 200.373 351.813 197.429 353.349 194.272C354.97 191.029 356.336 188.469 357.445 186.592C358.384 186.421 359.493 186.165 360.773 185.824C362.138 185.483 363.162 185.013 363.845 184.416C364.101 184.16 364.314 184.032 364.485 184.032C364.741 184.032 364.869 184.203 364.869 184.544C364.954 184.8 364.869 185.099 364.613 185.44C363.845 186.549 363.034 188.256 362.181 190.56C361.328 192.864 360.474 195.424 359.621 198.24C358.853 200.971 358.213 203.701 357.701 206.432C357.189 209.077 356.933 211.339 356.933 213.216C356.933 215.776 357.872 217.056 359.749 217.056C361.029 217.056 362.437 216.587 363.973 215.648C365.594 214.709 366.917 213.728 367.941 212.704C370.842 209.717 373.274 206.773 375.237 203.872C377.2 200.971 378.864 197.643 380.229 193.888C380.741 192.608 381.082 191.499 381.253 190.56C381.424 189.536 381.509 188.597 381.509 187.744C381.509 186.549 381.296 185.611 380.869 184.928C380.528 184.16 380.144 183.733 379.717 183.648C379.29 183.477 379.077 183.264 379.077 183.008C379.077 182.837 379.29 182.667 379.717 182.496C380.144 182.24 380.613 182.155 381.125 182.24C382.49 182.581 383.642 183.221 384.581 184.16C385.605 185.013 386.117 186.293 386.117 188C386.117 189.365 385.818 190.816 385.221 192.352C384.026 195.509 382.277 198.795 379.973 202.208C377.754 205.536 375.237 208.651 372.421 211.552C369.605 214.453 366.661 216.8 363.589 218.592C362.48 219.189 361.328 219.701 360.133 220.128C358.938 220.555 357.786 220.768 356.677 220.768C355.312 220.768 354.117 220.341 353.093 219.488C352.154 218.635 351.685 217.141 351.685 215.008C351.685 212.789 351.898 210.144 352.325 207.072C352.837 204 353.477 201.013 354.245 198.112C353.648 199.051 353.05 200.075 352.453 201.184C351.941 202.208 351.344 203.275 350.661 204.384C348.528 207.456 346.309 210.357 344.005 213.088C341.786 215.819 339.866 217.653 338.245 218.592C337.221 219.189 336.154 219.701 335.045 220.128C333.936 220.555 332.912 220.768 331.973 220.768ZM404.158 222.432C403.561 222.432 403.091 222.261 402.75 221.92C402.409 221.664 402.409 221.451 402.75 221.28C404.627 220.939 406.249 220.256 407.614 219.232C408.979 218.123 410.089 216.757 410.942 215.136C412.734 212.149 414.483 209.163 416.19 206.176C417.897 203.104 419.561 200.032 421.182 196.96L433.47 174.304C435.433 170.805 437.139 167.435 438.59 164.192C440.126 160.949 441.321 158.603 442.174 157.152C442.771 156.043 443.795 155.061 445.246 154.208C446.782 153.269 448.275 152.544 449.726 152.032C449.214 152.032 448.702 152.032 448.19 152.032C447.678 151.947 447.123 151.904 446.526 151.904C443.881 151.904 440.979 152.075 437.822 152.416C434.75 152.672 431.721 153.099 428.734 153.696C425.833 154.293 423.273 155.104 421.054 156.128C418.835 157.152 417.342 158.389 416.574 159.84C416.233 160.608 415.934 161.376 415.678 162.144C415.422 162.912 415.294 163.68 415.294 164.448C415.294 166.411 415.977 167.819 417.342 168.672C417.427 168.672 417.47 168.757 417.47 168.928C417.47 169.099 417.299 169.269 416.958 169.44C416.702 169.611 416.446 169.653 416.19 169.568C415.422 169.141 414.483 168.117 413.374 166.496C412.265 164.789 411.582 163.381 411.326 162.272C411.07 161.248 410.942 160.309 410.942 159.456C410.942 157.237 411.667 155.531 413.118 154.336C414.569 153.056 416.403 152.16 418.622 151.648C420.841 151.051 423.102 150.709 425.406 150.624C427.795 150.453 429.886 150.368 431.678 150.368C434.409 150.368 437.651 150.368 441.406 150.368C445.161 150.283 448.617 150.24 451.774 150.24C452.542 150.24 453.395 150.24 454.334 150.24C455.273 150.155 456.254 150.112 457.278 150.112C459.582 150.112 461.971 150.24 464.446 150.496C466.921 150.752 469.182 151.307 471.23 152.16C473.278 153.013 474.857 154.336 475.966 156.128C477.075 158.005 477.63 160.053 477.63 162.272C477.63 164.405 477.203 166.539 476.35 168.672C475.497 170.805 474.473 172.64 473.278 174.176C472.51 175.115 471.614 176.053 470.59 176.992C469.566 177.931 468.414 178.827 467.134 179.68C465.854 180.533 464.446 181.344 462.91 182.112C461.459 182.795 459.71 183.349 457.662 183.776C457.577 183.776 457.491 183.904 457.406 184.16C457.406 184.416 457.491 184.544 457.662 184.544C458.089 184.629 458.814 184.757 459.838 184.928C460.947 185.013 461.929 185.141 462.782 185.312C465.769 185.909 468.243 187.189 470.206 189.152C472.254 191.029 473.278 193.589 473.278 196.832C473.278 200.501 472.297 203.872 470.334 206.944C468.457 210.016 466.025 212.661 463.038 214.88C460.051 217.013 456.937 218.677 453.694 219.872C449.598 221.408 444.905 222.176 439.614 222.176C436.457 222.176 433.171 221.877 429.758 221.28C426.345 220.683 423.23 219.659 420.414 218.208C419.817 217.867 419.219 217.611 418.622 217.44C418.025 217.184 417.385 217.056 416.702 217.056C415.507 217.056 414.227 217.397 412.862 218.08C412.009 218.421 410.899 219.061 409.534 220C408.169 220.939 406.633 221.707 404.926 222.304C404.755 222.389 404.499 222.432 404.158 222.432ZM435.518 220.384C437.737 220.384 439.955 220.171 442.174 219.744C444.393 219.232 446.398 218.635 448.19 217.952C451.347 216.757 454.249 215.093 456.894 212.96C459.539 210.741 461.673 208.139 463.294 205.152C465.001 202.08 465.854 198.667 465.854 194.912C465.854 192.437 465.214 190.56 463.934 189.28C462.654 187.915 461.033 186.976 459.07 186.464C457.107 185.952 455.059 185.696 452.926 185.696C451.305 185.696 449.769 185.781 448.318 185.952C446.867 186.123 445.545 186.336 444.35 186.592C441.961 187.019 439.827 187.488 437.95 188C437.609 187.829 437.651 187.531 438.078 187.104C438.505 186.592 439.059 186.037 439.742 185.44C440.51 184.843 441.107 184.373 441.534 184.032C441.705 183.861 442.046 183.605 442.558 183.264C443.155 182.837 443.625 182.624 443.966 182.624C448.147 182.624 451.859 182.368 455.102 181.856C458.43 181.344 461.289 180.107 463.678 178.144C466.067 176.096 468.03 172.939 469.566 168.672C470.334 166.453 470.718 164.277 470.718 162.144C470.718 159.669 470.121 157.536 468.926 155.744C467.731 153.867 465.811 152.757 463.166 152.416C462.825 152.331 462.441 152.288 462.014 152.288C461.587 152.288 461.161 152.288 460.734 152.288C459.113 152.288 457.321 152.501 455.358 152.928C453.481 153.355 452.073 154.165 451.134 155.36C449.001 158.176 446.953 161.376 444.99 164.96C443.027 168.459 441.15 172.043 439.358 175.712C437.566 179.296 435.859 182.667 434.238 185.824C432.275 189.664 430.27 193.547 428.222 197.472C426.174 201.397 424.169 205.365 422.206 209.376C421.694 210.4 421.438 211.381 421.438 212.32C421.438 214.027 422.505 215.691 424.638 217.312C426.089 218.421 427.753 219.232 429.63 219.744C431.593 220.171 433.555 220.384 435.518 220.384ZM486.145 220.384C485.292 220.384 484.566 220.213 483.969 219.872C483.372 219.531 483.073 218.891 483.073 217.952C483.073 216.757 483.372 215.349 483.969 213.728C484.652 212.107 485.377 210.485 486.145 208.864C486.913 207.243 487.553 205.92 488.065 204.896C489.089 202.933 490.07 200.971 491.009 199.008C491.948 197.045 492.758 195.381 493.441 194.016C494.124 192.736 494.465 191.883 494.465 191.456C494.465 190.773 493.953 190.773 492.929 191.456C491.99 192.139 491.094 192.821 490.241 193.504C488.364 195.296 486.401 197.429 484.353 199.904C482.305 202.293 480.726 204.213 479.617 205.664C479.361 206.005 479.148 206.176 478.977 206.176C478.806 206.176 478.721 205.963 478.721 205.536C478.721 204.853 478.934 204.213 479.361 203.616C480.556 201.909 481.964 200.032 483.585 197.984C485.206 195.936 486.87 193.973 488.577 192.096C490.198 190.389 491.862 188.725 493.569 187.104C495.276 185.483 497.452 184.672 500.097 184.672C501.889 184.672 502.785 185.355 502.785 186.72C502.785 187.915 502.273 189.28 501.249 190.816C500.652 191.755 499.713 193.333 498.433 195.552C497.153 197.771 495.83 200.203 494.465 202.848C493.185 205.408 492.076 207.797 491.137 210.016C490.198 212.235 489.729 213.856 489.729 214.88C489.729 216.075 490.326 216.672 491.521 216.672C492.46 216.672 493.612 216.203 494.977 215.264C496.342 214.24 497.75 213.045 499.201 211.68C501.846 209.12 504.236 206.347 506.369 203.36C508.588 200.288 510.465 197.344 512.001 194.528C513.622 191.712 514.902 189.408 515.841 187.616C516.012 187.275 516.182 186.891 516.353 186.464C516.609 185.952 516.993 185.653 517.505 185.568C518.017 185.483 519.126 185.44 520.833 185.44C522.54 185.44 524.118 185.099 525.569 184.416H525.825C526.081 184.416 526.209 184.544 526.209 184.8C526.209 185.483 525.654 185.995 524.545 186.336C523.521 186.677 522.326 187.701 520.961 189.408C519.681 191.115 518.401 193.205 517.121 195.68C515.841 198.069 514.689 200.544 513.665 203.104C512.641 205.664 511.873 208.011 511.361 210.144C510.849 212.277 510.721 213.856 510.977 214.88C511.318 216.075 511.916 216.672 512.769 216.672C513.878 216.672 515.414 215.989 517.377 214.624C519.425 213.259 521.516 211.637 523.649 209.76C525.782 207.797 527.532 206.005 528.897 204.384C529.494 203.701 530.049 203.019 530.561 202.336C531.073 201.653 531.414 201.227 531.585 201.056C531.67 201.141 531.756 201.312 531.841 201.568C531.926 201.739 531.969 201.909 531.969 202.08C531.884 202.677 531.67 203.275 531.329 203.872C530.988 204.384 530.604 204.853 530.177 205.28C528.556 207.413 526.593 209.675 524.289 212.064C522.07 214.368 519.638 216.331 516.993 217.952C514.433 219.573 511.788 220.384 509.057 220.384C508.204 220.384 507.222 220.171 506.113 219.744C505.089 219.317 504.577 218.379 504.577 216.928C504.577 215.819 504.876 214.325 505.473 212.448C506.07 210.485 506.71 208.565 507.393 206.688C508.161 204.725 508.801 203.275 509.313 202.336C508.204 203.957 506.838 205.792 505.217 207.84C503.681 209.803 502.102 211.552 500.481 213.088C498.348 215.136 496.044 216.885 493.569 218.336C491.18 219.701 488.705 220.384 486.145 220.384ZM555.851 171.104C554.656 171.104 553.803 170.72 553.291 169.952C552.95 169.525 552.779 168.971 552.779 168.288C552.779 166.923 553.419 165.813 554.699 164.96C555.638 164.448 556.491 164.192 557.259 164.192C558.539 164.192 559.435 164.576 559.947 165.344C560.288 165.771 560.459 166.325 560.459 167.008C560.459 168.373 559.776 169.483 558.411 170.336C557.643 170.848 556.79 171.104 555.851 171.104ZM533.579 220.384C532.726 220.384 532 220.213 531.403 219.872C530.891 219.531 530.635 218.891 530.635 217.952C530.635 216.757 530.934 215.349 531.531 213.728C532.214 212.107 532.939 210.485 533.707 208.864C534.56 207.243 535.2 205.92 535.627 204.896C536.224 203.701 536.95 202.165 537.803 200.288C538.742 198.325 539.595 196.491 540.363 194.784C541.216 192.992 541.814 191.755 542.155 191.072C540.96 192.352 539.51 193.973 537.803 195.936C536.182 197.813 534.646 199.648 533.195 201.44C531.744 203.232 530.635 204.64 529.867 205.664C529.611 206.005 529.398 206.176 529.227 206.176C529.056 206.176 528.971 205.963 528.971 205.536C528.971 204.853 529.184 204.213 529.611 203.616C531.232 201.568 533.024 199.264 534.987 196.704C537.035 194.144 538.87 191.797 540.491 189.664C542.112 187.445 543.136 185.995 543.563 185.312C544.502 185.141 545.867 184.885 547.659 184.544C549.536 184.203 550.816 183.733 551.499 183.136C551.755 182.88 552.011 182.752 552.267 182.752C552.438 182.752 552.523 182.923 552.523 183.264C552.608 183.52 552.523 183.819 552.267 184.16C551.755 184.757 550.859 186.208 549.579 188.512C548.299 190.816 546.934 193.376 545.483 196.192C544.118 198.923 542.838 201.397 541.643 203.616C540.448 205.92 539.424 208.139 538.571 210.272C537.718 212.405 537.291 213.941 537.291 214.88C537.291 216.075 537.888 216.672 539.083 216.672C540.192 216.672 541.6 215.989 543.307 214.624C545.099 213.259 546.891 211.637 548.683 209.76C550.475 207.797 552.054 206.005 553.419 204.384C553.846 203.872 554.358 203.275 554.955 202.592C555.638 201.824 556.064 201.355 556.235 201.184C556.406 201.355 556.491 201.653 556.491 202.08C556.406 202.677 556.192 203.275 555.851 203.872C555.51 204.384 555.168 204.853 554.827 205.28C553.035 207.499 551.072 209.803 548.939 212.192C546.806 214.496 544.459 216.459 541.899 218.08C539.339 219.616 536.566 220.384 533.579 220.384ZM562.3 220.256C559.74 220.256 557.991 219.659 557.052 218.464C556.113 217.184 555.644 215.648 555.644 213.856C555.644 211.467 556.156 208.907 557.18 206.176C558.289 203.445 559.185 201.312 559.868 199.776C558.759 200.971 557.692 202.123 556.668 203.232C555.644 204.341 554.919 205.152 554.492 205.664C554.236 206.005 554.023 206.176 553.852 206.176C553.681 206.176 553.596 205.963 553.596 205.536C553.596 204.853 553.809 204.213 554.236 203.616C555.431 202.08 556.796 200.459 558.332 198.752C559.868 197.045 561.361 195.253 562.812 193.376C564.519 190.219 566.396 186.549 568.444 182.368C570.577 178.101 572.753 173.749 574.972 169.312C577.276 164.789 579.495 160.651 581.628 156.896C583.847 153.056 585.809 149.984 587.516 147.68C588.967 147.083 590.332 146.315 591.612 145.376C592.977 144.437 594.3 143.584 595.58 142.816C596.945 141.963 598.353 141.536 599.804 141.536C600.743 141.536 601.425 141.792 601.852 142.304C602.364 142.816 602.705 143.413 602.876 144.096C602.961 144.352 603.004 144.821 603.004 145.504C603.004 147.467 602.321 149.856 600.956 152.672C599.676 155.488 598.14 158.261 596.348 160.992C594.641 163.637 593.148 165.813 591.868 167.52C588.455 172.299 584.956 176.651 581.372 180.576C577.788 184.416 574.545 187.659 571.644 190.304C568.828 192.864 566.78 194.741 565.5 195.936C564.903 197.045 564.177 198.539 563.324 200.416C562.556 202.208 561.873 204.128 561.276 206.176C560.679 208.139 560.38 209.973 560.38 211.68C560.38 213.131 560.721 214.368 561.404 215.392C562.087 216.331 563.239 216.8 564.86 216.8C565.116 216.8 565.372 216.8 565.628 216.8C565.884 216.8 566.183 216.757 566.524 216.672C567.975 216.416 569.553 215.605 571.26 214.24C572.967 212.875 574.673 211.296 576.38 209.504C578.087 207.712 579.623 206.005 580.988 204.384C581.585 203.701 582.14 203.061 582.652 202.464C583.164 201.781 583.505 201.312 583.676 201.056C584.273 201.653 584.231 202.421 583.548 203.36C582.951 204.213 582.439 204.939 582.012 205.536C581.415 206.304 580.561 207.371 579.452 208.736C578.343 210.016 577.063 211.424 575.612 212.96C573.991 214.581 571.985 216.203 569.596 217.824C567.207 219.445 564.775 220.256 562.3 220.256ZM567.676 190.816C570.321 188.597 573.649 185.44 577.66 181.344C581.756 177.163 585.767 172.128 589.692 166.24C590.119 165.557 590.801 164.405 591.74 162.784C592.764 161.163 593.788 159.328 594.812 157.28C595.921 155.147 596.86 153.099 597.628 151.136C598.396 149.088 598.78 147.339 598.78 145.888C598.78 144.523 598.396 143.84 597.628 143.84C596.689 143.84 595.452 144.651 593.916 146.272C592.124 148.149 590.076 150.923 587.772 154.592C585.553 158.176 583.207 162.187 580.732 166.624C578.257 171.061 575.868 175.413 573.564 179.68C571.345 183.947 569.383 187.659 567.676 190.816ZM598.635 220.384C597.782 220.384 597.056 220.213 596.459 219.872C595.862 219.531 595.563 218.891 595.563 217.952C595.563 216.757 595.862 215.392 596.459 213.856C597.056 212.32 597.739 210.827 598.507 209.376C599.275 207.84 599.958 206.603 600.555 205.664C597.568 208.821 594.454 211.808 591.211 214.624C589.59 215.989 587.798 217.269 585.835 218.464C583.872 219.659 581.782 220.256 579.563 220.256C578.71 220.256 578.112 220 577.771 219.488C577.43 218.891 577.259 218.208 577.259 217.44C577.259 217.013 577.302 216.715 577.387 216.544C577.814 213.216 578.88 209.76 580.587 206.176C582.294 202.592 584.384 199.221 586.859 196.064C589.334 192.907 591.851 190.347 594.411 188.384C596.374 186.933 598.251 186.037 600.043 185.696C601.835 185.269 603.798 185.056 605.931 185.056H610.155C611.52 182.752 612.928 180.192 614.379 177.376C615.915 174.475 617.408 171.616 618.859 168.8C620.395 165.984 621.803 163.509 623.083 161.376C626.582 155.403 630.422 150.624 634.603 147.04C638.87 143.456 643.606 141.664 648.811 141.664C649.92 141.664 650.944 142.005 651.883 142.688C652.822 143.285 653.248 144.224 653.163 145.504L652.907 150.112C652.907 150.197 652.822 150.325 652.651 150.496C652.48 150.581 652.352 150.624 652.267 150.624C652.182 150.624 652.054 150.539 651.883 150.368C651.627 148.832 650.859 147.68 649.579 146.912C648.299 146.059 646.72 145.632 644.843 145.632C644.246 145.632 643.563 145.675 642.795 145.76C642.112 145.845 641.43 146.016 640.747 146.272C638.358 147.125 636.096 148.875 633.963 151.52C631.83 154.08 629.526 157.493 627.051 161.76C626.198 163.381 625.088 165.515 623.723 168.16C622.358 170.72 620.907 173.493 619.371 176.48C617.92 179.467 616.512 182.368 615.147 185.184C613.867 188 612.758 190.389 611.819 192.352C611.392 193.376 610.667 194.955 609.643 197.088C608.619 199.136 607.51 201.397 606.315 203.872C605.206 206.261 604.224 208.48 603.371 210.528C602.603 212.576 602.219 214.027 602.219 214.88C602.219 216.075 602.731 216.672 603.755 216.672C604.779 216.672 606.144 216.075 607.851 214.88C609.558 213.6 611.307 212.064 613.099 210.272C614.976 208.395 616.64 206.603 618.091 204.896C619.627 203.189 620.694 201.909 621.291 201.056C621.547 201.312 621.675 201.611 621.675 201.952C621.675 202.549 621.419 203.147 620.907 203.744C620.48 204.341 620.096 204.853 619.755 205.28C618.219 207.328 616.299 209.547 613.995 211.936C611.776 214.24 609.344 216.245 606.699 217.952C604.054 219.573 601.366 220.384 598.635 220.384ZM584.811 215.904C585.835 215.904 587.243 215.179 589.035 213.728C590.912 212.192 592.918 210.315 595.051 208.096C597.184 205.792 599.19 203.403 601.067 200.928C602.944 198.368 604.48 196.064 605.675 194.016C606.955 191.883 607.595 190.261 607.595 189.152C607.595 188.213 607.296 187.573 606.699 187.232C606.187 186.891 605.504 186.72 604.651 186.72C603.286 186.72 601.792 187.232 600.171 188.256C598.635 189.195 597.398 190.133 596.459 191.072C595.435 192.011 594.198 193.504 592.747 195.552C591.382 197.515 590.016 199.691 588.651 202.08C587.286 204.469 586.134 206.773 585.195 208.992C584.256 211.211 583.787 213.003 583.787 214.368C583.787 215.392 584.128 215.904 584.811 215.904ZM645.476 171.104C644.281 171.104 643.428 170.72 642.916 169.952C642.575 169.525 642.404 168.971 642.404 168.288C642.404 166.923 643.044 165.813 644.324 164.96C645.263 164.448 646.116 164.192 646.884 164.192C648.164 164.192 649.06 164.576 649.572 165.344C649.913 165.771 650.084 166.325 650.084 167.008C650.084 168.373 649.401 169.483 648.036 170.336C647.268 170.848 646.415 171.104 645.476 171.104ZM623.204 220.384C622.351 220.384 621.625 220.213 621.028 219.872C620.516 219.531 620.26 218.891 620.26 217.952C620.26 216.757 620.559 215.349 621.156 213.728C621.839 212.107 622.564 210.485 623.332 208.864C624.185 207.243 624.825 205.92 625.252 204.896C625.849 203.701 626.575 202.165 627.428 200.288C628.367 198.325 629.22 196.491 629.988 194.784C630.841 192.992 631.439 191.755 631.78 191.072C630.585 192.352 629.135 193.973 627.428 195.936C625.807 197.813 624.271 199.648 622.82 201.44C621.369 203.232 620.26 204.64 619.492 205.664C619.236 206.005 619.023 206.176 618.852 206.176C618.681 206.176 618.596 205.963 618.596 205.536C618.596 204.853 618.809 204.213 619.236 203.616C620.857 201.568 622.649 199.264 624.612 196.704C626.66 194.144 628.495 191.797 630.116 189.664C631.737 187.445 632.761 185.995 633.188 185.312C634.127 185.141 635.492 184.885 637.284 184.544C639.161 184.203 640.441 183.733 641.124 183.136C641.38 182.88 641.636 182.752 641.892 182.752C642.063 182.752 642.148 182.923 642.148 183.264C642.233 183.52 642.148 183.819 641.892 184.16C641.38 184.757 640.484 186.208 639.204 188.512C637.924 190.816 636.559 193.376 635.108 196.192C633.743 198.923 632.463 201.397 631.268 203.616C630.073 205.92 629.049 208.139 628.196 210.272C627.343 212.405 626.916 213.941 626.916 214.88C626.916 216.075 627.513 216.672 628.708 216.672C629.817 216.672 631.225 215.989 632.932 214.624C634.724 213.259 636.516 211.637 638.308 209.76C640.1 207.797 641.679 206.005 643.044 204.384C643.471 203.872 643.983 203.275 644.58 202.592C645.263 201.824 645.689 201.355 645.86 201.184C646.031 201.355 646.116 201.653 646.116 202.08C646.031 202.677 645.817 203.275 645.476 203.872C645.135 204.384 644.793 204.853 644.452 205.28C642.66 207.499 640.697 209.803 638.564 212.192C636.431 214.496 634.084 216.459 631.524 218.08C628.964 219.616 626.191 220.384 623.204 220.384ZM644.245 221.92C643.904 221.92 643.904 221.536 644.245 220.768C644.672 220 645.056 219.147 645.397 218.208C645.824 217.269 646.25 216.245 646.677 215.136C647.53 213.088 648.469 210.784 649.493 208.224C650.517 205.664 651.498 203.189 652.437 200.8C653.376 198.325 654.186 196.235 654.869 194.528C655.637 192.736 656.149 191.584 656.405 191.072C655.21 192.352 653.76 193.973 652.053 195.936C650.432 197.813 648.896 199.648 647.445 201.44C645.994 203.232 644.885 204.64 644.117 205.664C643.861 206.005 643.648 206.176 643.477 206.176C643.306 206.176 643.221 205.963 643.221 205.536C643.221 204.853 643.434 204.213 643.861 203.616C645.482 201.568 647.274 199.264 649.237 196.704C651.285 194.144 653.12 191.797 654.741 189.664C656.362 187.445 657.386 185.995 657.813 185.312C658.752 185.141 660.117 184.885 661.909 184.544C663.786 184.203 665.066 183.733 665.749 183.136C666.005 182.88 666.261 182.752 666.517 182.752C666.688 182.752 666.773 182.923 666.773 183.264C666.858 183.52 666.773 183.819 666.517 184.16C666.005 184.757 665.109 186.165 663.829 188.384C662.634 190.517 661.312 192.907 659.861 195.552C658.496 198.197 657.216 200.587 656.021 202.72C657.045 201.355 658.154 200.032 659.349 198.752C660.544 197.472 661.696 196.235 662.805 195.04C663.829 194.016 665.237 192.736 667.029 191.2C668.821 189.664 670.698 188.256 672.661 186.976C674.624 185.696 676.33 184.971 677.781 184.8C678.122 184.715 678.421 184.672 678.677 184.672C679.018 184.672 679.274 184.672 679.445 184.672C681.322 184.672 682.261 185.355 682.261 186.72C682.261 187.744 681.706 189.109 680.597 190.816C680 191.755 679.061 193.333 677.781 195.552C676.586 197.685 675.349 200.032 674.069 202.592C672.874 205.067 671.808 207.413 670.869 209.632C670.016 211.765 669.589 213.344 669.589 214.368C669.589 215.563 670.186 216.16 671.381 216.16C672.832 216.16 674.41 215.435 676.117 213.984C677.909 212.533 679.829 210.699 681.877 208.48C683.925 206.176 685.973 203.744 688.021 201.184C688.192 201.355 688.277 201.653 688.277 202.08C688.277 202.677 688.064 203.275 687.637 203.872C687.296 204.384 686.954 204.853 686.613 205.28C685.76 206.389 684.608 207.797 683.157 209.504C681.792 211.125 680.384 212.747 678.933 214.368C677.482 215.904 676.16 217.141 674.965 218.08C674.112 218.677 673.002 219.317 671.637 220C670.272 220.683 668.906 221.024 667.541 221.024C666.005 221.024 664.938 220.64 664.341 219.872C663.744 219.019 663.445 217.995 663.445 216.8C663.445 215.435 663.701 213.984 664.213 212.448C664.725 210.912 665.28 209.461 665.877 208.096C666.56 206.645 667.072 205.579 667.413 204.896C668.949 201.909 670.357 199.093 671.637 196.448C672.917 193.803 673.813 191.925 674.325 190.816C674.581 190.304 674.709 189.877 674.709 189.536C674.709 188.939 674.24 188.896 673.301 189.408C672.362 189.92 671.21 190.688 669.845 191.712C668.565 192.736 667.37 193.76 666.261 194.784C665.152 195.723 664.426 196.363 664.085 196.704C660.928 200.032 658.154 203.744 655.765 207.84C653.461 211.851 651.498 215.989 649.877 220.256C648.768 220.341 647.658 220.64 646.549 221.152C645.44 221.664 644.672 221.92 644.245 221.92ZM662.815 264.8C659.572 264.8 656.458 264.032 653.471 262.496C650.399 261.045 648.138 258.784 646.687 255.712C646.09 254.603 645.706 253.408 645.535 252.128C645.364 250.933 645.279 249.739 645.279 248.544V247.264C645.279 246.581 645.364 245.941 645.535 245.344C645.706 244.747 646.175 244.448 646.943 244.448C647.114 244.448 647.199 244.533 647.199 244.704C647.199 245.216 647.156 245.728 647.071 246.24C646.986 246.752 646.943 247.307 646.943 247.904C646.943 251.829 648.223 254.816 650.783 256.864C653.258 258.912 656.372 259.936 660.127 259.936C661.663 259.936 663.242 259.765 664.863 259.424C666.484 259.083 667.978 258.613 669.343 258.016C674.804 255.712 679.54 252.384 683.551 248.032C687.647 243.68 691.188 238.773 694.175 233.312C697.247 227.851 699.935 222.261 702.239 216.544C704.628 210.741 706.847 205.28 708.895 200.16C707.103 203.061 705.14 205.664 703.007 207.968C700.874 210.187 698.484 212.405 695.839 214.624C694.218 215.989 692.426 217.269 690.463 218.464C688.586 219.659 686.538 220.256 684.319 220.256C683.466 220.256 682.868 220 682.527 219.488C682.186 218.891 682.015 218.208 682.015 217.44V216.544C682.442 213.216 683.508 209.76 685.215 206.176C687.007 202.592 689.14 199.221 691.615 196.064C694.09 192.907 696.607 190.347 699.167 188.384C702.068 186.165 705.268 185.056 708.767 185.056H723.487C723.914 185.056 724.127 185.227 724.127 185.568C724.127 186.251 723.743 186.592 722.975 186.592C722.036 186.592 721.14 186.976 720.287 187.744C719.434 188.512 718.794 189.237 718.367 189.92C717.514 191.285 716.404 193.376 715.039 196.192C713.674 199.008 712.18 202.251 710.559 205.92C708.938 209.504 707.316 213.173 705.695 216.928C704.074 220.597 702.58 224.053 701.215 227.296C699.167 232.16 696.82 236.896 694.175 241.504C691.615 246.197 688.543 250.379 684.959 254.048C681.46 257.803 677.279 260.747 672.415 262.88C669.514 264.16 666.314 264.8 662.815 264.8ZM689.567 215.904C690.591 215.904 691.999 215.179 693.791 213.728C695.583 212.192 697.546 210.315 699.679 208.096C701.812 205.792 703.818 203.403 705.695 200.928C707.572 198.368 709.108 196.064 710.303 194.016C711.583 191.883 712.223 190.261 712.223 189.152C712.223 188.213 711.924 187.573 711.327 187.232C710.815 186.891 710.132 186.72 709.279 186.72C707.914 186.72 706.463 187.232 704.927 188.256C703.391 189.195 702.154 190.133 701.215 191.072C700.191 192.011 698.954 193.504 697.503 195.552C696.138 197.515 694.73 199.691 693.279 202.08C691.914 204.469 690.762 206.773 689.823 208.992C688.884 211.211 688.415 213.003 688.415 214.368C688.415 215.392 688.799 215.904 689.567 215.904ZM724.21 220.768C723.357 220.768 722.461 220.469 721.522 219.872C720.669 219.189 719.986 218.549 719.474 217.952C719.389 217.781 719.73 217.44 720.498 216.928C721.266 216.331 722.077 215.776 722.93 215.264C723.869 214.752 724.381 214.539 724.466 214.624C725.149 214.965 725.831 215.349 726.514 215.776C727.197 216.117 727.922 216.245 728.69 216.16H729.202C729.629 216.16 729.842 216.288 729.842 216.544C729.842 216.8 729.543 217.227 728.946 217.824C728.178 218.421 727.367 219.061 726.514 219.744C725.746 220.427 724.978 220.768 724.21 220.768ZM743.335 220.768C742.482 220.768 741.586 220.469 740.647 219.872C739.794 219.189 739.111 218.549 738.599 217.952C738.514 217.781 738.855 217.44 739.623 216.928C740.391 216.331 741.202 215.776 742.055 215.264C742.994 214.752 743.506 214.539 743.591 214.624C744.274 214.965 744.956 215.349 745.639 215.776C746.322 216.117 747.047 216.245 747.815 216.16H748.327C748.754 216.16 748.967 216.288 748.967 216.544C748.967 216.8 748.668 217.227 748.071 217.824C747.303 218.421 746.492 219.061 745.639 219.744C744.871 220.427 744.103 220.768 743.335 220.768ZM762.46 220.768C761.607 220.768 760.711 220.469 759.772 219.872C758.919 219.189 758.236 218.549 757.724 217.952C757.639 217.781 757.98 217.44 758.748 216.928C759.516 216.331 760.327 215.776 761.18 215.264C762.119 214.752 762.631 214.539 762.716 214.624C763.399 214.965 764.081 215.349 764.764 215.776C765.447 216.117 766.172 216.245 766.94 216.16H767.452C767.879 216.16 768.092 216.288 768.092 216.544C768.092 216.8 767.793 217.227 767.196 217.824C766.428 218.421 765.617 219.061 764.764 219.744C763.996 220.427 763.228 220.768 762.46 220.768Z" fill="black"/>
</svg>
